# xmcd
#
# Track frame offsets:
#	150
#	21636
#	30772
#	45407
#	58875
#	71329
#	81832
#	95023
#	107001
#	124171
#	136548
#	148603
#	162301
#	174817
#	191557
#	199787
#	208063
#	224004
#	234830
#	243198
#
# Disc length: 3466 seconds
#
# Revision: 0
# Processed by: cddbd v1.5.2PL0 Copyright (c) Steve Scherf et al.
# Submitted via: audiograbber 1.82.02
#
DISCID=140d8814
DTITLE=Various Artist - Modern Xmas 2006
DYEAR=2006
DGENRE=Country
TTITLE0=Garth Brooks - The Gift
TTITLE1=Slim Dusty - Santa's Gonna' In Mail Coach
TTITLE2=Greg  Doolan - Six White Boomers
TTITLE3=Louvin Brothers - It's Xmas Time
TTITLE4=Anne Murray - Silver Bells
TTITLE5=Slim Dusty - Santa Looked Like Daddy
TTITLE6=Troy Cassar - Christmas For Cowboys
TTITLE7=Cristy Lane - Memory Old Xmas Card
TTITLE8=Garth Brooks - Silent Night
TTITLE9=Hank Thompson - White Xmas
TTITLE10=Anne Murray - Xmas Wishes
TTITLE11=Greg Doolan - Xmas In The Scrub
TTITLE12=Johnny O'Keefe - Pretty Paper
TTITLE13=Oliver Newton - The First Noel
TTITLE14=Slim Whitman - There's Song In Air
TTITLE15=Greg Doolan - Boomerang Of Flowers
TTITLE16=Garth Brooks - Go Tell It On The Mountain
TTITLE17=Greg Doolan - Xmas Where Gum Trees Grow
TTITLE18=Greg Doolan - Three Drovers
TTITLE19=Kenny Rogers - Christmas Everyday
EXTD=
EXTT0=
EXTT1=
EXTT2=
EXTT3=
EXTT4=
EXTT5=
EXTT6=
EXTT7=
EXTT8=
EXTT9=
EXTT10=
EXTT11=
EXTT12=
EXTT13=
EXTT14=
EXTT15=
EXTT16=
EXTT17=
EXTT18=
EXTT19=
PLAYORDER=
